<svg width="186" height="205" viewBox="0 0 186 205" fill="none" xmlns="http://www.w3.org/2000/svg">
<path d="M179.068 66.3664C180.04 64.6178 180.937 63.1756 181.608 61.9576C181.834 61.5017 182.053 61.0459 182.279 60.7395C182.43 60.4332 182.58 60.2762 182.656 60.052C182.95 59.5962 183.101 59.2151 183.251 58.9087C182.58 57.616 181.834 56.2485 181.088 54.881C181.088 54.7988 181.013 54.7241 180.937 54.6493C180.266 53.4388 179.595 52.2207 178.774 51.0027C178.254 50.091 177.651 49.1794 177.131 48.3424C177.055 48.2602 176.98 48.1108 176.904 48.036C176.603 47.5802 176.309 47.1244 175.932 46.5938C175.186 45.5327 174.44 44.4641 173.618 43.4777C172.706 42.2373 171.786 41.079 170.874 39.9133C168.967 37.4921 166.94 35.1681 164.708 33.0534C163.706 32.1118 162.651 31.103 161.663 30.0942C143.663 13.221 119.618 2.87885 93.1752 2.87885C86.0822 2.87885 79.14 3.64106 72.3409 5.08328V40.8922C78.9138 38.6878 85.9315 37.4697 93.1752 37.4697C113.263 37.4697 131.339 46.5191 143.588 60.6573C127.08 88.4033 95.5647 141.242 93.1752 143.91L24.8381 29.8775L21.627 33.0683C20.5792 34.1369 19.539 35.2728 18.5667 36.4161C17.5943 37.4772 16.6219 38.5383 15.7249 39.6816C15.5063 39.9133 15.2802 40.1374 15.1295 40.4438C14.3832 41.3555 13.637 42.3494 12.8154 43.3357C12.8154 43.3357 12.74 43.4105 12.74 43.4852C11.843 44.6958 10.946 45.9138 10.1244 47.1319C9.37815 48.193 8.63192 49.3363 7.96106 50.3974C7.8103 50.5468 7.73493 50.7785 7.65955 50.9279C6.83793 52.2207 6.01632 53.5882 5.27008 54.881C4.52385 56.1737 3.85299 57.5412 3.10675 58.9087C3.25751 59.2151 3.4761 59.5962 3.70223 60.052C3.85299 60.2837 3.92837 60.4332 4.07912 60.7395C4.30525 61.0459 4.52385 61.5017 4.74998 61.9576C5.27762 62.8692 5.8731 63.9304 6.54396 65.1484C6.84547 65.5295 7.06407 65.9106 7.2902 66.3664C7.50879 66.7401 7.73492 67.0464 7.96106 67.4275C7.96106 67.5097 8.03643 67.6592 8.11181 67.7339C10.8028 72.3744 14.3832 78.5319 18.5667 85.6757C38.6623 119.826 72.65 176.909 86.9114 199.514C89.8436 204.162 96.5145 204.162 99.4466 199.514C113.731 176.894 147.771 119.751 167.867 85.601C172.05 78.4497 176.516 70.893 179.131 66.2525" stroke="white" stroke-width="4"/>
</svg>
